<?xml version="1.0" encoding="utf-8"?>
<!-- Generator: Adobe Illustrator 17.1.0, SVG Export Plug-In . SVG Version: 6.00 Build 0)  -->
<!DOCTYPE svg PUBLIC "-//W3C//DTD SVG 1.1//EN" "http://www.w3.org/Graphics/SVG/1.1/DTD/svg11.dtd">
<svg version="1.1" id="Layer_1" xmlns="http://www.w3.org/2000/svg" xmlns:xlink="http://www.w3.org/1999/xlink" x="0px" y="0px"
	 viewBox="0 0 478.8 478.8" enable-background="new 0 0 478.8 478.8" xml:space="preserve">
<circle fill="#FEF800" cx="239.4" cy="239.4" r="239.4"/>
<g>
	<path fill="#000100" d="M77.9,197.1h21c13.3,0,19.8,7.4,19.8,20.9v42.8c0,13.5-6.5,20.9-19.8,20.9h-21V197.1z M91.2,209.2v60.4h7.5
		c4.2,0,6.8-2.2,6.8-8.2v-44c0-6-2.5-8.2-6.8-8.2H91.2z"/>
	<path fill="#000100" d="M140.5,232.8h18.3v12.1h-18.3v24.8h23v12.1h-36.3v-84.6h36.3v12.1h-23V232.8z"/>
	<path fill="#000100" d="M210.3,250.2v11.2c0,13.5-6.8,21.3-19.8,21.3c-13.1,0-19.8-7.7-19.8-21.3v-44c0-13.5,6.8-21.3,19.8-21.3
		c13.1,0,19.8,7.7,19.8,21.3v8.2h-12.6v-9.1c0-6-2.7-8.3-6.9-8.3c-4.2,0-6.9,2.3-6.9,8.3v45.7c0,6,2.7,8.2,6.9,8.2
		c4.2,0,6.9-2.2,6.9-8.2v-12.1H210.3z"/>
	<path fill="#000100" d="M217.3,217.4c0-13.5,7.1-21.3,20.2-21.3c13.1,0,20.2,7.7,20.2,21.3v44c0,13.5-7.1,21.3-20.2,21.3
		c-13.1,0-20.2-7.7-20.2-21.3V217.4z M230.6,262.3c0,6,2.7,8.3,6.9,8.3c4.2,0,6.9-2.3,6.9-8.3v-45.7c0-6-2.7-8.3-6.9-8.3
		c-4.2,0-6.9,2.3-6.9,8.3V262.3z"/>
	<path fill="#000100" d="M266.2,197.1h21c13.3,0,19.8,7.4,19.8,20.9v42.8c0,13.5-6.5,20.9-19.8,20.9h-21V197.1z M279.5,209.2v60.4
		h7.5c4.2,0,6.8-2.2,6.8-8.2v-44c0-6-2.5-8.2-6.8-8.2H279.5z"/>
	<path fill="#000100" d="M328.9,232.8h18.3v12.1h-18.3v24.8h23v12.1h-36.3v-84.6h36.3v12.1h-23V232.8z"/>
	<path fill="#000100" d="M360,197.1h21c13.3,0,19.8,7.4,19.8,20.9v42.8c0,13.5-6.5,20.9-19.8,20.9h-21V197.1z M373.3,209.2v60.4h7.5
		c4.2,0,6.8-2.2,6.8-8.2v-44c0-6-2.5-8.2-6.8-8.2H373.3z"/>
</g>
</svg>
